<?xml version="1.0" encoding="utf-8"?>
<!-- Generator: Adobe Illustrator 25.2.3, SVG Export Plug-In . SVG Version: 6.00 Build 0)  -->
<svg version="1.1" id="Layer_1" xmlns="http://www.w3.org/2000/svg" xmlns:xlink="http://www.w3.org/1999/xlink" x="0px" y="0px"
	 viewBox="0 0 1280 1280" style="enable-background:new 0 0 1280 1280;" xml:space="preserve">
<style type="text/css">
	.st0{fill:#D59A57;}
</style>
<g transform="translate(0.000000,1280.000000) scale(0.100000,-0.100000)">
	<path class="st0" d="M8601,9301c-1,161-4,219-13,227c-54.3,16.2-109.6,31.9-166,47c-232.5,62.3-672.2,177.2-668,140
		c-1.8-7.9-3.4-15.2-4.7-21.8c0,0-1.7-8.7-3.3-17.2c-34.5-191.7,272.7-729.5,272.7-729.5c159.1-278.5,368.2-529.2,502.3-820.5
		c6.8-14.7,33.4-74.3,68.9-75.6c6-0.2,11.9,1.7,18.1,5.6c38,25,39,126,2,854C8605,9006,8601,9182,8601,9301z"/>
	<path class="st0" d="M8379.4,9641.4c25-3.9,56.6-8.5,93.3-13.4c32.4-4.3,37.7-4.6,42.7-1.7c32.3,18.8-10.7,136.2-34.6,232.7
		c-58,234-129,462-164,523c-22,39-50,54-72,38c-6-5-33-39-60-78c-27-38-135-155-240-260c-104-104-199-207-210-227
		c-10.6-20.5-14.9-30.1-13.5-38.1c1.4-7.7,6.5-13.4,11.5-17.9c33.7-30.2,88-31,88-31C7873.5,9767.3,8065.3,9723,8379.4,9641.4z"/>
	<path class="st0" d="M8067,9674"/>
	<path class="st0" d="M9201.3,10203.4c-1.5,6.9,3.2,26.7-11,36c-234.8,152.9-746.9,181-778,181c-9,0-23-9-31-21c-14-19-12-31,19-122
		c48-141,119-393,144-507c20.8-96.9,30.1-128.4,46.8-137.1c6-3.1,14.2-2.9,14.2-2.9c32.1-2.4,57.5,22.4,70,35
		C8705.9,9696.1,8915.3,9908.7,9201.3,10203.4z"/>
	<path class="st0" d="M9435,9327.2c-2.1,1.6-3.7,3-5.1,4.3l-774.6,188.8c-16.4,4-32.9-7.2-34.7-24c-5.4-51.4,6.7-187.9,39.4-550.1
		c28-305,54-565,58-579c5-17,16-26,33-28c21-2,38,9,82,55c119,125,263,317,404,538c117,185,213,350,213,368
		C9450,9308.2,9443,9320.2,9435,9327.2z"/>
	<path class="st0" d="M9468,9387.5c-73,262.2-130.3,469.7-168,608.8c-13.2,48.7-47.8,176.1-79.9,174.5c-3.1-0.2-6.1-1.6-9.1-4.5
		c-148.5-140.8-281.7-338.5-387-419.9c-30.1-23.2-58.1-49.1-88.2-72.3c-22.8-17.5-31.2-23-40.8-36.8c-27.9-40-35-75-35-75
		c0,0,0-0.1,0-0.1c0,0,0.4-6.3,9-12.3c9.1-6.4,753.5-187.8,775.2-178.3"/>
	<path class="st0" d="M10070,10000c-21,10-581,148-666,164c-40,7-79,10-92,5c-15-6-22-17-22-34c0-26,203-702,224-745
		c20-42,48-37,91,17c22,26,116,125,210,218C10048,9856,10127,9973,10070,10000z"/>
	<path class="st0" d="M10315.9,9078.7l-723.8,194c-3.9,1.1-8,1.3-12,1c-7-0.5-17.4-0.3-32.1,0.3l-30.5,0.6
		c-12.6,0.2-24.4-6.4-30.6-17.4L9432,9160c-35-63-144-248-242-410c-194-323-276-473-340-623c-40-93-41-99-26-123c9-13,23-24,30-24
		c8,0,81,50,162,111c142,106,366,264,844,593c327,226,480,342,480,366c0,3.8-0.9,7.7-2.5,11.4
		C10333.5,9070.2,10325.2,9076.2,10315.9,9078.7z"/>
	<path class="st0" d="M10371.9,9113.5c13.4-3.3,27.8,0,37.9,9.5c0.1,0.1,0.2,0.2,0.3,0.2c12,11,19,27,16,39c-2,11-47,160-100,330
		c-53,171-103,335-112,366c-27,96-29,95-266-146c-206.7-209.6-296-308.9-320.2-364.5c-10.3-23.7,3.1-50.9,28.1-57.1L10371.9,9113.5z
		"/>
	<path class="st0" d="M10836,6361c-59,487-241,923-544,1299c-149,185-424,437-624,574l-57,39l-68-22c-84-27-178-82-280-163
		c-120-95-183-158-183-183c0-16,29-41,127-105c608-401,939-884,1008-1470c98-824-236-1572-895-2002c-687-450-1521-477-2189-72
		c-243,148-469,362-621,588c-342,510-449,1299-254,1886c67,203,204,453,331,605c74,89,78,99,51,128c-48,52-427,277-466,277
		c-41,0-255-327-386-591c-139-279-217-541-247-827c-16-152-6-571,16-712c76-487,241-870,536-1250c157-202,409-437,608-567
		c66-42.7,462-247,504-264c187-72,464-136,691-158c141-14,441-14,582,0c623,61,1177,322,1614,759c428,428,672,938,746,1560
		C10855,5854,10855,6197,10836,6361z"/>
	<path class="st0" d="M6782.5,3613.7c46.4-36.8,464.1-156.1,530.6-259.5c36.2-56.3-44-138.2-260.1-268.2
		c-596.5-358.8-966.5-569.6-1583-653c-170-23-570-23-760,0c-720,91-1309,369-1814,857c-456,442-753,982-875,1590
		c-184,924-5,1832,502,2540c171,239,452,539,655,699c484,382,1013,581,1687,634c99,8,396,6,512-4c820-67,1483-371,2029-931
		c483-494,759-1048,866-1738c19-128,22-184,23-470c0-266-3-346-18-440c-37-238-103-476-189-690c-75-186-154.8-361.2-180.8-378.2
		c-18-12-41.4-25.8-106.9-14.5c-113.3,19.5-204.7,56-519,167.7c-33.4,11.9-41.3,23.1,12.7,168.1c212,559,304,1022,276,1392
		c-53,700-347,1264-881,1695c-363,293-768,462-1237,516c-186,22-572,14-752-15c-517-83-943-307-1310-687c-208-216-359-429-480-679
		c-115-235-176-429-217-695c-22-144-25-573-5-720c40-281,114-527,227-758c126-257,261-440,481-652c377-363,821-587,1319-664
		c92-14,136-18,344-31c31.4-2,280.6-6.4,490,35c472.6,93.5,697.7,214.4,1044.9,447.2C6659.5,3651.3,6741.2,3612.4,6782.5,3613.7z"/>
	<path class="st0" d="M7968.7,8714.7c-324-41-702-153-970-288c-70-35-86-54-71-84c12-21,157-147,324-280c188-149,163-139,249-98
		c208,98,450,147,734,147c80,0,106,3,118,16c9,8,16,21,16,27c-1,40-258,564-280,570C8080.7,8726.7,8026.7,8721.7,7968.7,8714.7z"/>
	<path class="st0" d="M7123,3556"/>
</g>
<polyline class="st0" points="0,1280 0,1280 0,1280 "/>
<line class="st0" x1="767.2" y1="308" x2="767.2" y2="307.7"/>
</svg>
